<?xml version="1.0" standalone="no"?>
<!DOCTYPE svg PUBLIC "-//W3C//DTD SVG 20010904//EN"
 "http://www.w3.org/TR/2001/REC-SVG-20010904/DTD/svg10.dtd">
<svg version="1.0" xmlns="http://www.w3.org/2000/svg"
 width="512.000000pt" height="512.000000pt" viewBox="0 0 512.000000 512.000000"
 preserveAspectRatio="xMidYMid meet">
<metadata>
Created by potrace 1.11, written by Peter Selinger 2001-2013
</metadata>
<g transform="translate(0.000000,512.000000) scale(0.100000,-0.100000)"
fill="#000000" stroke="none">
<path d="M0 2555 l0 -2555 600 0 600 0 0 215 0 215 -315 0 -315 0 0 2120 0
2120 315 0 315 0 0 220 0 220 -600 0 -600 0 0 -2555z"/>
<path d="M3920 4890 l0 -220 315 0 315 0 0 -2120 0 -2120 -315 0 -315 0 0
-215 0 -215 600 0 600 0 0 2555 0 2555 -600 0 -600 0 0 -220z"/>
<path d="M3545 3113 c-29 -185 -60 -260 -144 -344 -163 -163 -373 -130 -754
117 -125 82 -264 152 -379 192 -247 87 -530 85 -723 -7 -265 -125 -435 -422
-464 -807 l-6 -94 247 0 248 0 0 38 c1 114 61 273 130 342 66 66 136 93 251
98 147 6 252 -33 479 -178 211 -135 394 -219 577 -266 127 -32 311 -34 429 -4
266 67 462 276 549 584 23 80 55 281 55 342 l0 24 -245 0 -244 0 -6 -37z"/>
</g>
</svg>
